<svg xmlns="http://www.w3.org/2000/svg" width="320" height="320" viewBox="0 0 320 320">
  <defs>
    <pattern id="cloudPattern" width="160" height="160" patternUnits="userSpaceOnUse">
      <rect width="160" height="160" fill="rgba(255,255,255,0)"/>
      <g opacity="0.55">
        <path d="M34 111c0-9 7-16 16-16 3 0 6 1 8 2 4-7 11-11 19-11 11 0 20 8 21 18 8 1 14 8 14 16 0 9-8 17-17 17H49c-8 0-15-7-15-16 0-5 0-7 0-10z" fill="#ffffff" stroke="#9ad0ff" stroke-width="3" stroke-linejoin="round"/>
        <circle cx="25" cy="34" r="6" fill="#ffd56a"/>
        <circle cx="35" cy="28" r="4" fill="#ffd56a"/>
        <circle cx="45" cy="36" r="5" fill="#ffd56a"/>
        <path d="M108 34l4 9 9 1-7 6 2 9-8-5-8 5 2-9-7-6 9-1z" fill="#ffd56a" stroke="#f2c24f" stroke-width="2" stroke-linejoin="round"/>
        <path d="M118 124l3 6 6 1-5 4 1 6-5-3-5 3 1-6-5-4 6-1z" fill="#ffb4d1" stroke="#f48ab8" stroke-width="2" stroke-linejoin="round"/>
        <circle cx="128" cy="45" r="10" fill="#b9f0ff" stroke="#7fcfe8" stroke-width="3"/>
      </g>
      <g opacity="0.35" transform="translate(82 0)">
        <path d="M34 111c0-9 7-16 16-16 3 0 6 1 8 2 4-7 11-11 19-11 11 0 20 8 21 18 8 1 14 8 14 16 0 9-8 17-17 17H49c-8 0-15-7-15-16 0-5 0-7 0-10z" fill="#ffffff" stroke="#9ad0ff" stroke-width="3" stroke-linejoin="round"/>
        <circle cx="25" cy="34" r="6" fill="#ffd56a"/>
        <circle cx="35" cy="28" r="4" fill="#ffd56a"/>
        <circle cx="45" cy="36" r="5" fill="#ffd56a"/>
        <path d="M108 34l4 9 9 1-7 6 2 9-8-5-8 5 2-9-7-6 9-1z" fill="#ffd56a" stroke="#f2c24f" stroke-width="2" stroke-linejoin="round"/>
      </g>
      <g opacity="0.3" transform="translate(20 78)">
        <circle cx="16" cy="16" r="8" fill="#d7c4ff"/>
        <circle cx="36" cy="8" r="5" fill="#b7a4ff"/>
        <circle cx="48" cy="18" r="7" fill="#d7c4ff"/>
      </g>
    </pattern>
  </defs>
  <rect width="320" height="320" fill="#f7f4ff"/>
  <rect width="320" height="320" fill="url(#cloudPattern)"/>
</svg>
